<?xml version="1.0" encoding="UTF-8" standalone="no"?>
<svg
   height="128"
   width="128"
   version="1.1"
   id="svg9173"
   sodipodi:docname="icon.svg"
   inkscape:version="1.2.1 (9c6d41e410, 2022-07-14)"
   xmlns:inkscape="http://www.inkscape.org/namespaces/inkscape"
   xmlns:sodipodi="http://sodipodi.sourceforge.net/DTD/sodipodi-0.dtd"
   xmlns="http://www.w3.org/2000/svg"
   xmlns:svg="http://www.w3.org/2000/svg">
  <defs
     id="defs9177" />
  <sodipodi:namedview
     id="namedview9175"
     pagecolor="#505050"
     bordercolor="#ffffff"
     borderopacity="1"
     inkscape:showpageshadow="0"
     inkscape:pageopacity="0"
     inkscape:pagecheckerboard="1"
     inkscape:deskcolor="#505050"
     showgrid="false"
     inkscape:zoom="4.7232523"
     inkscape:cx="115.28073"
     inkscape:cy="88.921779"
     inkscape:window-width="1920"
     inkscape:window-height="1009"
     inkscape:window-x="-8"
     inkscape:window-y="758"
     inkscape:window-maximized="1"
     inkscape:current-layer="svg9173" />
  <g
     stroke-width="9.92746"
     transform="matrix(.10073078 0 0 .10073078 12.425923 2.256365)"
     id="g9171">
    <path
       d="m0 0s-.325 1.994-.515 1.976l-36.182-3.491c-2.879-.278-5.115-2.574-5.317-5.459l-.994-14.247-27.992-1.997-1.904 12.912c-.424 2.872-2.932 5.037-5.835 5.037h-38.188c-2.902 0-5.41-2.165-5.834-5.037l-1.905-12.912-27.992 1.997-.994 14.247c-.202 2.886-2.438 5.182-5.317 5.46l-36.2 3.49c-.187.018-.324-1.978-.511-1.978l-.049-7.83 30.658-4.944 1.004-14.374c.203-2.91 2.551-5.263 5.463-5.472l38.551-2.75c.146-.01.29-.016.434-.016 2.897 0 5.401 2.166 5.825 5.038l1.959 13.286h28.005l1.959-13.286c.423-2.871 2.93-5.037 5.831-5.037.142 0 .284.005.423.015l38.556 2.75c2.911.209 5.26 2.562 5.463 5.472l1.003 14.374 30.645 4.966z"
       fill="#fff"
       transform="matrix(4.162611 0 0 -4.162611 919.24059 771.67186)"
       id="path9155" />
    <path
       d="m0 0v-47.514-6.035-5.492c.108-.001.216-.005.323-.015l36.196-3.49c1.896-.183 3.382-1.709 3.514-3.609l1.116-15.978 31.574-2.253 2.175 14.747c.282 1.912 1.922 3.329 3.856 3.329h38.188c1.933 0 3.573-1.417 3.855-3.329l2.175-14.747 31.575 2.253 1.115 15.978c.133 1.9 1.618 3.425 3.514 3.609l36.182 3.49c.107.01.214.014.322.015v4.711l.015.005v54.325c5.09692 6.4164715 9.92323 13.494208 13.621 19.449-5.651 9.62-12.575 18.217-19.976 26.182-6.864-3.455-13.531-7.369-19.828-11.534-3.151 3.132-6.7 5.694-10.186 8.372-3.425 2.751-7.285 4.768-10.946 7.118 1.09 8.117 1.629 16.108 1.846 24.448-9.446 4.754-19.519 7.906-29.708 10.17-4.068-6.837-7.788-14.241-11.028-21.479-3.842.642-7.702.88-11.567.926v.006c-.027 0-.052-.006-.075-.006-.024 0-.049.006-.073.006v-.006c-3.872-.046-7.729-.284-11.572-.926-3.238 7.238-6.956 14.642-11.03 21.479-10.184-2.264-20.258-5.416-29.703-10.17.216-8.34.755-16.331 1.848-24.448-3.668-2.35-7.523-4.367-10.949-7.118-3.481-2.678-7.036-5.24-10.188-8.372-6.297 4.165-12.962 8.079-19.828 11.534-7.401-7.965-14.321-16.562-19.974-26.182 4.4426579-6.973692 9.2079702-13.9828876 13.621-19.449z"
       fill="#478cbf"
       transform="matrix(4.162611 0 0 -4.162611 104.69892 525.90697)"
       id="path9157" />
    <path
       d="m0 0-1.121-16.063c-.135-1.936-1.675-3.477-3.611-3.616l-38.555-2.751c-.094-.007-.188-.01-.281-.01-1.916 0-3.569 1.406-3.852 3.33l-2.211 14.994h-31.459l-2.211-14.994c-.297-2.018-2.101-3.469-4.133-3.32l-38.555 2.751c-1.936.139-3.476 1.68-3.611 3.616l-1.121 16.063-32.547 3.138c.015-3.498.06-7.33.06-8.093 0-34.374 43.605-50.896 97.781-51.086h.066.067c54.176.19 97.766 16.712 97.766 51.086 0 .777.047 4.593.063 8.093z"
       fill="#478cbf"
       transform="matrix(4.162611 0 0 -4.162611 784.07144 817.24284)"
       id="path9159" />
    <path
       d="m0 0c0-12.052-9.765-21.815-21.813-21.815-12.042 0-21.81 9.763-21.81 21.815 0 12.044 9.768 21.802 21.81 21.802 12.048 0 21.813-9.758 21.813-21.802"
       fill="#fff"
       transform="matrix(4.162611 0 0 -4.162611 389.21484 625.67104)"
       id="path9161" />
    <path
       d="m0 0c0-7.994-6.479-14.473-14.479-14.473-7.996 0-14.479 6.479-14.479 14.473s6.483 14.479 14.479 14.479c8 0 14.479-6.485 14.479-14.479"
       fill="#414042"
       transform="matrix(4.162611 0 0 -4.162611 367.36686 631.05679)"
       id="path9163" />
    <path
       d="m0 0c-3.878 0-7.021 2.858-7.021 6.381v20.081c0 3.52 3.143 6.381 7.021 6.381s7.028-2.861 7.028-6.381v-20.081c0-3.523-3.15-6.381-7.028-6.381"
       fill="#fff"
       transform="matrix(4.162611 0 0 -4.162611 511.99336 724.73954)"
       id="path9165" />
    <path
       d="m0 0c0-12.052 9.765-21.815 21.815-21.815 12.041 0 21.808 9.763 21.808 21.815 0 12.044-9.767 21.802-21.808 21.802-12.05 0-21.815-9.758-21.815-21.802"
       fill="#fff"
       transform="matrix(4.162611 0 0 -4.162611 634.78706 625.67104)"
       id="path9167" />
    <path
       d="m0 0c0-7.994 6.477-14.473 14.471-14.473 8.002 0 14.479 6.479 14.479 14.473s-6.477 14.479-14.479 14.479c-7.994 0-14.471-6.485-14.471-14.479"
       fill="#414042"
       transform="matrix(4.162611 0 0 -4.162611 656.64056 631.05679)"
       id="path9169" />
  </g>
  <rect
     style="fill:#a08662;fill-opacity:1;stroke:#c7b08b;stroke-width:12.2957;stroke-dasharray:none;stroke-opacity:1"
     id="rect1514"
     width="110.56754"
     height="110.56754"
     x="8.7162285"
     y="8.7162285"
     rx="0.95936424"
     ry="0" />
  <path
     id="rect3906"
     style="fill:#c7b08b;stroke-width:10.631"
     d="m 20.836279,6.9965406 c -0.192131,0 -0.384604,0.073894 -0.531825,0.2211158 L 7.2172006,20.30491 c -0.2944441,0.294444 -0.2944441,0.768572 0,1.063018 L 49.849735,64.000465 7.2178363,106.63237 c -0.294444,0.29443 -0.294444,0.76856 0,1.06301 L 20.305089,120.782 c 0.29443,0.29441 0.767942,0.29444 1.062381,0 L 63.999371,78.150095 106.6319,120.78263 c 0.29443,0.29444 0.76857,0.29444 1.06301,0 l 13.0879,-13.08725 c 0.29443,-0.29445 0.29443,-0.76858 0,-1.06301 L 78.149639,63.999826 120.78217,21.367288 c 0.2944,-0.294426 0.29443,-0.767934 0,-1.062378 L 107.69491,7.2176564 c -0.29444,-0.2944463 -0.76794,-0.2944428 -1.06237,0 L 64.000005,49.850195 21.36747,7.2176564 C 21.220249,7.070435 21.02841,6.9965406 20.836279,6.9965406 Z" />
</svg>
